<?xml version="1.0" encoding="utf-8"?>
<!-- Generator: Adobe Illustrator 17.0.0, SVG Export Plug-In . SVG Version: 6.00 Build 0)  -->
<!DOCTYPE svg PUBLIC "-//W3C//DTD SVG 1.1//EN" "http://www.w3.org/Graphics/SVG/1.1/DTD/svg11.dtd">
<svg version="1.1" id="Layer_1" xmlns="http://www.w3.org/2000/svg" xmlns:xlink="http://www.w3.org/1999/xlink" x="0px" y="0px"
	 width="595.28px" height="841.89px" viewBox="0 0 595.28 841.89" enable-background="new 0 0 595.28 841.89" xml:space="preserve">
<g>
	<g>
		<path fill-rule="evenodd" clip-rule="evenodd" fill="#FFFFFF" d="M297.5,363.5c-31.48,0-57,25.52-57,57c0,31.48,25.52,57,57,57
			s57-25.52,57-57C354.5,389.02,328.98,363.5,297.5,363.5z M297.5,365.5c21.37,0,39.88,12.196,48.985,30H297.5
			c-13.807,0-25,11.193-25,25c0,1.344,0.109,2.663,0.314,3.95l-20.108-35.844C262.678,374.625,279.018,365.5,297.5,365.5z
			 M320.5,420.5c0,12.703-10.297,23-23,23s-23-10.297-23-23s10.297-23,23-23S320.5,407.797,320.5,420.5z M242.5,420.5
			c0-11.094,3.296-21.413,8.946-30.053l22.182,39.542l0.607-0.341c3.652,9.28,12.688,15.851,23.265,15.851
			c5.191,0,10.013-1.583,14.009-4.292l-20.35,33.917C263.772,471.979,242.5,448.73,242.5,420.5z M297.5,475.5
			c-1.391,0-2.766-0.069-4.131-0.171l22.989-38.315l-0.064-0.038c3.861-4.4,6.206-10.163,6.206-16.476
			c0-10.325-6.26-19.186-15.191-23h40.149c3.228,7,5.042,14.786,5.042,23C352.5,450.876,327.876,475.5,297.5,475.5z"/>
	</g>
</g>
</svg>
