<?xml version="1.0" encoding="utf-8"?>
<!-- Generator: Adobe Illustrator 17.0.0, SVG Export Plug-In . SVG Version: 6.00 Build 0)  -->
<!DOCTYPE svg PUBLIC "-//W3C//DTD SVG 1.1//EN" "http://www.w3.org/Graphics/SVG/1.1/DTD/svg11.dtd">
<svg version="1.1" id="Layer_1" xmlns="http://www.w3.org/2000/svg" xmlns:xlink="http://www.w3.org/1999/xlink" x="0px" y="0px"
	 width="595.28px" height="841.89px" viewBox="0 0 595.28 841.89" enable-background="new 0 0 595.28 841.89" xml:space="preserve">
<g>
	<g>
		<path fill-rule="evenodd" clip-rule="evenodd" fill="#FFFFFF" d="M344.5,386.62h-26v-7c0-2.761-2.239-5-5-5h-32
			c-2.761,0-5,2.239-5,5v7h-26c-5.523,0-10,4.477-10,10v61c0,5.523,4.477,10,10,10h94c5.523,0,10-4.477,10-10v-61
			C354.5,391.097,350.023,386.62,344.5,386.62z M278.5,379.62c0-1.657,1.343-3,3-3h32c1.657,0,3,1.343,3,3v7h-38V379.62z
			 M352.5,457.62c0,4.418-3.582,8-8,8h-94c-4.418,0-8-3.582-8-8v-42h19v1c0,2.761,2.238,5,5,5h11c2.761,0,5-2.239,5-5v-1h30v1
			c0,2.761,2.239,5,5,5h11c2.761,0,5-2.239,5-5v-1h19V457.62z M263.5,416.62v-4c0-1.657,1.343-3,3-3h11c1.657,0,3,1.343,3,3v4
			c0,1.657-1.343,3-3,3h-11C264.843,419.62,263.5,418.277,263.5,416.62z M314.5,416.62v-4c0-1.657,1.343-3,3-3h11
			c1.657,0,3,1.343,3,3v4c0,1.657-1.343,3-3,3h-11C315.843,419.62,314.5,418.277,314.5,416.62z M352.5,413.62h-19v-1
			c0-2.762-2.239-5-5-5h-11c-2.761,0-5,2.239-5,5v1h-30v-1c0-2.762-2.239-5-5-5h-11c-2.762,0-5,2.239-5,5v1h-19v-17
			c0-4.418,3.582-8,8-8h94c4.418,0,8,3.582,8,8V413.62z"/>
	</g>
</g>
</svg>
