<?xml version="1.0" encoding="UTF-8" standalone="no"?>
<!-- Generator: Adobe Illustrator 17.0.0, SVG Export Plug-In . SVG Version: 6.00 Build 0)  -->

<svg
   xmlns:dc="http://purl.org/dc/elements/1.1/"
   xmlns:cc="http://creativecommons.org/ns#"
   xmlns:rdf="http://www.w3.org/1999/02/22-rdf-syntax-ns#"
   xmlns:svg="http://www.w3.org/2000/svg"
   xmlns="http://www.w3.org/2000/svg"
   xmlns:sodipodi="http://sodipodi.sourceforge.net/DTD/sodipodi-0.dtd"
   xmlns:inkscape="http://www.inkscape.org/namespaces/inkscape"
   version="1.1"
   id="Layer_1"
   x="0px"
   y="0px"
   width="114"
   height="93"
   viewBox="0 0 113.99999 92.999998"
   enable-background="new 0 0 595.28 841.89"
   xml:space="preserve"
   inkscape:version="0.48.3.1 r9886"
   sodipodi:docname="icon_case.svg"><metadata
   id="metadata3166"><rdf:RDF><cc:Work
       rdf:about=""><dc:format>image/svg+xml</dc:format><dc:type
         rdf:resource="http://purl.org/dc/dcmitype/StillImage" /></cc:Work></rdf:RDF></metadata><defs
   id="defs3164" /><sodipodi:namedview
   pagecolor="#ffffff"
   bordercolor="#666666"
   borderopacity="1"
   objecttolerance="10"
   gridtolerance="10"
   guidetolerance="10"
   inkscape:pageopacity="0"
   inkscape:pageshadow="2"
   inkscape:window-width="640"
   inkscape:window-height="480"
   id="namedview3162"
   showgrid="false"
   fit-margin-top="0"
   fit-margin-left="0"
   fit-margin-right="0"
   fit-margin-bottom="0"
   inkscape:zoom="0.28032165"
   inkscape:cx="57.140001"
   inkscape:cy="46.675001"
   inkscape:window-x="0"
   inkscape:window-y="24"
   inkscape:window-maximized="0"
   inkscape:current-layer="Layer_1" />
<g
   id="g3156"
   transform="translate(-240.50001,-374.62)">
	<g
   id="g3158">
		<path
   clip-rule="evenodd"
   d="m 344.5,386.62 h -26 v -7 c 0,-2.761 -2.239,-5 -5,-5 h -32 c -2.761,0 -5,2.239 -5,5 v 7 h -26 c -5.523,0 -10,4.477 -10,10 v 61 c 0,5.523 4.477,10 10,10 h 94 c 5.523,0 10,-4.477 10,-10 v -61 c 0,-5.523 -4.477,-10 -10,-10 z m -66,-7 c 0,-1.657 1.343,-3 3,-3 h 32 c 1.657,0 3,1.343 3,3 v 7 h -38 v -7 z m 74,78 c 0,4.418 -3.582,8 -8,8 h -94 c -4.418,0 -8,-3.582 -8,-8 v -42 h 19 v 1 c 0,2.761 2.238,5 5,5 h 11 c 2.761,0 5,-2.239 5,-5 v -1 h 30 v 1 c 0,2.761 2.239,5 5,5 h 11 c 2.761,0 5,-2.239 5,-5 v -1 h 19 v 42 z m -89,-41 v -4 c 0,-1.657 1.343,-3 3,-3 h 11 c 1.657,0 3,1.343 3,3 v 4 c 0,1.657 -1.343,3 -3,3 h -11 c -1.657,0 -3,-1.343 -3,-3 z m 51,0 v -4 c 0,-1.657 1.343,-3 3,-3 h 11 c 1.657,0 3,1.343 3,3 v 4 c 0,1.657 -1.343,3 -3,3 h -11 c -1.657,0 -3,-1.343 -3,-3 z m 38,-3 h -19 v -1 c 0,-2.762 -2.239,-5 -5,-5 h -11 c -2.761,0 -5,2.239 -5,5 v 1 h -30 v -1 c 0,-2.762 -2.239,-5 -5,-5 h -11 c -2.762,0 -5,2.239 -5,5 v 1 h -19 v -17 c 0,-4.418 3.582,-8 8,-8 h 94 c 4.418,0 8,3.582 8,8 v 17 z"
   id="path3160"
   inkscape:connector-curvature="0"
   style="fill:#ffffff;fill-rule:evenodd" />
	</g>
</g>
</svg>